<?xml version="1.0" encoding="utf-8"?>
<!-- Generator: Adobe Illustrator 27.0.0, SVG Export Plug-In . SVG Version: 6.00 Build 0)  -->
<svg version="1.1" id="Layer_1" xmlns="http://www.w3.org/2000/svg" xmlns:xlink="http://www.w3.org/1999/xlink" x="0px" y="0px"
	 viewBox="0 0 1920 1920" style="enable-background:new 0 0 1920 1920;" xml:space="preserve">
<style type="text/css">
	.st0{fill:#F8B1BA;}
	.st1{fill:#F89F7B;}
	.st2{fill:#FFCD05;}
	.st3{fill:#FFFFFF;}
	.st4{fill:url(#SVGID_1_);}
	.st5{opacity:0.63;fill:url(#SVGID_00000019643861545675305680000012736678365360721327_);}
	.st6{fill:#E6E7E8;}
	.st7{fill:url(#SVGID_00000029754023545256264500000009976242333164172437_);}
	.st8{fill:url(#SVGID_00000052793084118436846350000013755673544729483177_);}
	.st9{opacity:0.63;fill:url(#SVGID_00000085209890810569039040000015239330437888875402_);}
	.st10{fill:url(#SVGID_00000132771134138245316350000012112275251224568727_);}
	.st11{fill:url(#SVGID_00000057132528702942341020000014256375073088938156_);}
	.st12{opacity:0.63;fill:url(#SVGID_00000134947407157196134960000000645293576987543701_);}
	.st13{fill:url(#SVGID_00000127035987718596918380000007672978843759424144_);}
	.st14{fill:url(#SVGID_00000008870256907125671300000011309892210802654592_);}
	.st15{opacity:0.63;fill:url(#SVGID_00000121241787962215491330000013962316068884178096_);}
	.st16{fill:url(#SVGID_00000057870994086845803510000003548258161813389447_);}
</style>
<linearGradient id="SVGID_1_" gradientUnits="userSpaceOnUse" x1="1532.4995" y1="1338.7244" x2="413.0242" y2="692.395">
	<stop  offset="0" style="stop-color:#FFCD05"/>
	<stop  offset="0.7056" style="stop-color:#F89F7B"/>
</linearGradient>
<ellipse class="st4" cx="972.8" cy="1015.6" rx="670.1" ry="568.4"/>
<g>
	
		<linearGradient id="SVGID_00000071518038947269626040000006115304444760205757_" gradientUnits="userSpaceOnUse" x1="1482.4495" y1="1315.5101" x2="479.032" y2="736.1868">
		<stop  offset="0" style="stop-color:#58595B"/>
		<stop  offset="1" style="stop-color:#000000"/>
	</linearGradient>
	<path style="opacity:0.63;fill:url(#SVGID_00000071518038947269626040000006115304444760205757_);" d="M1549.5,1025.8
		c0,63.3-1.4,130.8-20.3,191.7c-20.5,66.1-60.6,124.3-113.8,168.3c-122.4,101.3-282.5,111.1-434.6,111.1
		c-151.9-0.1-312.4-9.6-434.6-111.1c-53.2-44.2-93.3-102.1-113.8-168.3c-18.8-60.9-20.3-128.5-20.3-191.7
		c0-63.2,1.4-130.8,20.3-191.7C452.8,767.9,493,710,546.1,665.8c122.2-101.5,282.7-111,434.6-111.1c152.1-0.1,312.2,9.8,434.6,111.1
		c53.2,44,93.4,102.2,113.8,168.3C1548,895,1549.5,962.5,1549.5,1025.8z"/>
</g>
<g>
	<path class="st6" d="M1223.4,819.3c-5.4-18.4-9.4-36.7-13.1-55.5c-1.3-6.6-0.5-13.8,2.6-19.4c9.6-15.6,20.2-29.5,32.9-42.7
		c4.4-4.3,10.6-5.7,16.4-4.6c16,2.9,32.3,5.5,47.9,10.3c5.9,1.7,10.8,6.7,12.9,13.4c5.4,18.4,9.4,36.8,13.1,55.5
		c1.3,6.6,0.5,13.8-2.6,19.4c-9.6,15.6-20.2,29.4-32.9,42.7c-4.4,4.3-10.6,5.7-16.4,4.6c-16.1-2.9-32.2-5.7-47.9-10.3
		C1230.4,831,1225.5,826,1223.4,819.3z"/>
</g>
<path class="st6" d="M1345.4,833.7l23.2-6.3c5.6-1.5,11.5,0.4,15.1,4.9l18.1,22.5c2.9,3.6,3.9,8.3,2.8,12.7l-8,31.3
	c-1.3,5.1-5.2,9.1-10.3,10.4l-23.2,6.3c-5.6,1.5-11.5-0.4-15.1-4.9l-18.1-22.5c-2.9-3.6-3.9-8.3-2.8-12.7l8-31.3
	C1336.4,839.1,1340.3,835.1,1345.4,833.7z"/>
<path d="M682.1,1098L682.1,1098c-39.4,0-71.3-31.9-71.3-71.3V842.1c0-39.4,31.9-71.3,71.3-71.3h0c39.4,0,71.3,31.9,71.3,71.3v184.6
	C753.4,1066.1,721.4,1098,682.1,1098z"/>
<path d="M1110.6,1101.1L1110.6,1101.1c-39.4,0-71.3-31.9-71.3-71.3V845.3c0-39.4,31.9-71.3,71.3-71.3h0c39.4,0,71.3,31.9,71.3,71.3
	v184.6C1181.9,1069.2,1150,1101.1,1110.6,1101.1z"/>
<path class="st2" d="M1677.9,1314h-67.6c-24.9,0-45.1-20.2-45.1-45.1V807.2c0-24.9,20.2-45.1,45.1-45.1h67.6
	c24.9,0,45.1,20.2,45.1,45.1v461.7C1723,1293.8,1702.8,1314,1677.9,1314z"/>
<path class="st1" d="M332.7,1316.9h-67.6c-24.9,0-45.1-20.2-45.1-45.1V810.1c0-24.9,20.2-45.1,45.1-45.1h67.6
	c24.9,0,45.1,20.2,45.1,45.1v461.7C377.8,1296.7,357.6,1316.9,332.7,1316.9z"/>
<linearGradient id="SVGID_00000054257645145410281250000004072289517933344146_" gradientUnits="userSpaceOnUse" x1="-1015.6435" y1="801" x2="-1015.6435" y2="477" gradientTransform="matrix(-1.2129 0 0 1 427.2654 0)">
	<stop  offset="7.977308e-03" style="stop-color:#FFCD05"/>
	<stop  offset="1" style="stop-color:#F8B1BA"/>
</linearGradient>
<path style="fill:url(#SVGID_00000054257645145410281250000004072289517933344146_);" d="M1616.7,801h39.2
	c11.8,0,21.4-9.5,21.4-21.2c13-22.6,76.3-137,27.3-239.8c-6.2-13.1-15-27.4-27.3-41.8c0-1.4-0.1-8.9-6.3-15
	c-3.9-3.8-9.2-6.2-15.2-6.2h-39.2c-11.8,0-21.4,9.5-21.4,21.2c18.3,17.9,29.4,35.9,36.5,50.8c48.4,103.1-27.3,217.4-36.5,230.8
	C1595.3,781.2,1595.5,788.7,1616.7,801z"/>
</svg>
